<?xml version="1.0" encoding="UTF-8"?>
<svg id="Layer_2" data-name="Layer 2" xmlns="http://www.w3.org/2000/svg" xmlns:xlink="http://www.w3.org/1999/xlink" viewBox="0 0 70.95 21.68">
  <defs>
    <style>
      .cls-1 {
        fill: #f1f2f2;
      }

      .cls-2 {
        fill: none;
      }

      .cls-3 {
        fill: #009ddc;
      }

      .cls-4 {
        fill: #006bb6;
      }

      .cls-5 {
        fill: #005aa4;
      }

      .cls-6 {
        fill: #0058a9;
      }

      .cls-7 {
        fill: #004983;
      }

      .cls-8 {
        fill: #007ec1;
      }

      .cls-9 {
        clip-path: url(#clippath);
      }
    </style>
    <clipPath id="clippath">
      <path class="cls-2" d="M24.79,21.25l-4.35-7.54-.49-.85L12.88.62l-.36-.62L0,21.68h25.04l-.25-.43ZM9.86,15.46l2.66-4.61,2.66,4.61h-5.33Z"/>
    </clipPath>
  </defs>
  <g id="Layer_1-2" data-name="Layer 1">
    <g>
      <path class="cls-1" d="M53.83,0v4.88h-6.05l-.04,16.8h-5.6l.04-16.8h-3.68C37.12,2.44,34.77.76,31.8,0h22.03Z"/>
      <path class="cls-1" d="M37.74,4.89C35.82,1.86,32.31.1,28,0c-.13,0-.25,0-.38,0h-7.68v11.63l.49.85,5.07,8.77.25.43h1.9c3.5,0,6.51-1.1,8.59-3.08,0,0,0,0,.01-.01,1.95-1.87,3.1-4.51,3.1-7.76,0-2.31-.58-4.31-1.61-5.94M32.29,15.14c-1.02,1.03-2.49,1.67-4.32,1.67h-2.44V4.88h2.47c.15,0,.29,0,.44.01,3.68.19,5.54,2.71,5.54,5.94,0,1.67-.59,3.21-1.69,4.31"/>
      <path class="cls-1" d="M59.73,20.05c0,.06-.04.13-.11.23-.66.79-1.54,1.18-2.64,1.18s-2.04-.38-2.73-1.15c-.68-.74-1.02-1.68-1.02-2.81s.33-2.02,1-2.79c.7-.8,1.58-1.2,2.65-1.2,1.17,0,2.08.36,2.75,1.08.07.08.11.15.11.21,0,.07-.13.32-.38.76-.25.44-.41.69-.47.74-.03.03-.06.04-.11.04-.02,0-.11-.07-.27-.22-.19-.17-.39-.31-.57-.41-.28-.14-.58-.22-.89-.22-.53,0-.95.2-1.27.59-.29.37-.44.82-.44,1.36s.15,1.01.44,1.38c.32.4.74.61,1.27.61.31,0,.61-.07.89-.21.18-.09.37-.22.56-.38.16-.14.25-.21.26-.21.04,0,.07.02.11.06.06.06.21.29.47.68.26.4.39.62.39.66Z"/>
      <path class="cls-1" d="M67.82,17.49c0,1.12-.36,2.07-1.08,2.83-.73.77-1.66,1.16-2.78,1.16s-2.04-.39-2.77-1.17c-.72-.76-1.08-1.7-1.08-2.82s.36-2.06,1.08-2.83c.73-.78,1.66-1.17,2.77-1.17s2.03.39,2.77,1.17c.72.77,1.09,1.71,1.09,2.83ZM65.77,17.48c0-.54-.16-1-.49-1.38-.34-.4-.78-.59-1.31-.59s-.94.21-1.29.62c-.34.4-.51.85-.51,1.37,0,.55.16,1.01.48,1.38.34.39.78.58,1.32.58.51,0,.94-.2,1.3-.61.34-.39.51-.84.51-1.36Z"/>
      <path class="cls-6" d="M70.95,20.09c0,.36-.12.66-.37.91-.25.25-.55.38-.9.38s-.65-.13-.9-.38c-.24-.25-.37-.56-.37-.91s.12-.66.37-.91.54-.38.9-.38.65.13.9.38c.25.25.37.55.37.91Z"/>
      <g class="cls-9">
        <rect class="cls-2" width="53.83" height="21.68"/>
        <g>
          <ellipse class="cls-7" cx="13.45" cy="12.74" rx="17.36" ry="18.11" transform="translate(-1.41 23.81) rotate(-80.16)"/>
          <ellipse class="cls-6" cx="7.25" cy="16.81" rx="12.28" ry="12.7" transform="translate(-10.56 21.08) rotate(-80.16)"/>
          <ellipse class="cls-4" cx="5.05" cy="18.51" rx="10.93" ry="11.3" transform="translate(-14.05 20.32) rotate(-80.16)"/>
          <ellipse class="cls-5" cx="3.2" cy="19.56" rx="8.88" ry="9.18" transform="translate(-16.62 19.38) rotate(-80.16)"/>
          <ellipse class="cls-8" cx="1.24" cy="20.9" rx="7.22" ry="7.47" transform="translate(-19.57 18.55) rotate(-80.16)"/>
          <ellipse class="cls-3" cx="-.68" cy="22.2" rx="5.62" ry="5.81" transform="translate(-22.43 17.74) rotate(-80.16)"/>
        </g>
      </g>
    </g>
  </g>
</svg>